<svg width="22" height="23" viewBox="0 0 22 23" fill="none" xmlns="http://www.w3.org/2000/svg">
<path d="M5.86586 10.0629C6.19858 9.05628 6.8407 8.18045 7.70061 7.56035C8.56053 6.94025 9.59431 6.60756 10.6545 6.60974C11.8563 6.60974 12.9428 7.03641 13.7962 7.73472L16.2794 5.25223C14.7661 3.93312 12.8269 3.1189 10.6545 3.1189C7.29093 3.1189 4.39529 5.03747 3.00293 7.84779L5.86586 10.0629Z" fill="#EA4335"/>
<path d="M13.5276 15.9282C12.7524 16.4282 11.7683 16.6948 10.6547 16.6948C9.59872 16.697 8.56884 16.367 7.71083 15.7514C6.85283 15.1359 6.21018 14.2661 5.87387 13.2651L3.00098 15.4461C3.70586 16.8728 4.79672 18.0732 6.14965 18.911C7.50258 19.7488 9.06334 20.1904 10.6547 20.1857C12.7404 20.1857 14.7329 19.444 16.2255 18.0523L13.5283 15.9282H13.5276Z" fill="#34A853"/>
<path d="M16.2251 18.0522C17.786 16.5959 18.7994 14.4284 18.7994 11.6522C18.7994 11.1473 18.7219 10.6048 18.6059 10.1006H10.6543V13.398H15.231C15.0056 14.5066 14.399 15.3649 13.5279 15.9281L16.2251 18.0522Z" fill="#4285F4"/>
<path d="M5.87371 13.2651C5.69974 12.7453 5.61136 12.2006 5.61202 11.6523C5.61202 11.0963 5.70091 10.5622 5.86589 10.063L3.00295 7.8479C2.41727 9.03025 2.11535 10.3329 2.12118 11.6523C2.12118 13.0177 2.43762 14.3048 3.00082 15.4461L5.87371 13.2651Z" fill="#FBBC05"/>
</svg>
