<svg xmlns="http://www.w3.org/2000/svg" width="18" height="22" viewBox="0 0 18 22" fill="none">
  <g filter="url(#filter0_d_5323_3759)">
    <path d="M7.86762 2.17193L4.12512 3.58193C3.26262 3.90443 2.55762 4.92443 2.55762 5.83943V11.4119C2.55762 12.2969 3.14262 13.4594 3.85512 13.9919L7.08012 16.3994C8.13762 17.1944 9.87762 17.1944 10.9351 16.3994L14.1601 13.9919C14.8726 13.4594 15.4576 12.2969 15.4576 11.4119V5.83943C15.4576 4.91693 14.7526 3.89693 13.8901 3.57443L10.1476 2.17193C9.51012 1.93943 8.49012 1.93943 7.86762 2.17193Z" fill="url(#paint0_linear_5323_3759)"/>
  </g>
  <path d="M9 9.87451C9.82843 9.87451 10.5 9.20294 10.5 8.37451C10.5 7.54608 9.82843 6.87451 9 6.87451C8.17157 6.87451 7.5 7.54608 7.5 8.37451C7.5 9.20294 8.17157 9.87451 9 9.87451Z" stroke="#24B352" stroke-miterlimit="10" stroke-linecap="round" stroke-linejoin="round"/>
  <path d="M9 9.87451V12.1245" stroke="#24B352" stroke-miterlimit="10" stroke-linecap="round" stroke-linejoin="round"/>
  <defs>
    <filter id="filter0_d_5323_3759" x="0.446164" y="1.99756" width="17.1228" height="19.221" filterUnits="userSpaceOnUse" color-interpolation-filters="sRGB">
      <feFlood flood-opacity="0" result="BackgroundImageFix"/>
      <feColorMatrix in="SourceAlpha" type="matrix" values="0 0 0 0 0 0 0 0 0 0 0 0 0 0 0 0 0 0 127 0" result="hardAlpha"/>
      <feOffset dy="2.11145"/>
      <feGaussianBlur stdDeviation="1.05573"/>
      <feComposite in2="hardAlpha" operator="out"/>
      <feColorMatrix type="matrix" values="0 0 0 0 0 0 0 0 0 0 0 0 0 0 0 0 0 0 0.1 0"/>
      <feBlend mode="normal" in2="BackgroundImageFix" result="effect1_dropShadow_5323_3759"/>
      <feBlend mode="normal" in="SourceGraphic" in2="effect1_dropShadow_5323_3759" result="shape"/>
    </filter>
    <linearGradient id="paint0_linear_5323_3759" x1="9.00763" y1="0.589367" x2="9.00763" y2="19.7591" gradientUnits="userSpaceOnUse">
      <stop stop-color="white"/>
      <stop offset="0.880413" stop-color="#D5E9D5"/>
    </linearGradient>
  </defs>
</svg>