<svg width="80" height="76" viewBox="0 0 80 76" fill="none" xmlns="http://www.w3.org/2000/svg">
<rect x="1" y="1" width="78" height="73.0559" rx="16.7778" fill="white"/>
<rect x="1" y="1" width="78" height="73.0559" rx="16.7778" stroke="#F2F2F2" stroke-width="2"/>
<path d="M10.1241 56.1468C10.0372 53.63 9.9937 50.795 9.9937 47.6417C9.9937 44.691 10.0372 41.5666 10.1241 38.2687C10.2111 34.9708 10.356 31.615 10.5588 28.2014C10.7617 24.7878 11.0081 21.461 11.2979 18.2209L18.8621 18.3511C18.6012 20.3761 18.3694 22.4445 18.1665 24.5564C17.9926 26.6393 17.8477 28.7366 17.7318 30.8484C18.949 30.0095 20.4126 29.0404 22.1225 27.9411C23.8614 26.8128 25.7162 25.6846 27.687 24.5564C29.6577 23.3992 31.6285 22.2999 33.5992 21.2585C35.599 20.217 37.4683 19.3347 39.2072 18.6115L41.3373 25.9883C39.5695 26.7116 37.7871 27.5071 35.9902 28.375C34.2223 29.2429 32.5269 30.1107 30.904 30.9786C29.31 31.8175 27.8899 32.6276 26.6437 33.4086C25.3974 34.1608 24.4121 34.8262 23.6875 35.4047C22.963 35.9544 22.6007 36.3594 22.6007 36.6198C22.6007 36.9958 23.1659 37.6323 24.2961 38.5291C25.4264 39.4259 26.9625 40.4818 28.9042 41.6968C30.846 42.9118 33.0486 44.1847 35.512 45.5154C38.0045 46.8462 42.1227 48.6398 45.2527 49.5944L56.8866 57.2751C53.6685 57.2751 41.8619 57.6222 30.078 50.983C27.3247 49.2473 24.8613 47.6128 22.6877 46.0795C20.543 44.5463 18.7606 43.23 17.3405 42.1307C17.3405 43.2011 17.3405 44.2715 17.3405 45.3419C17.3405 47.2801 17.355 49.1605 17.384 50.983C17.442 52.7766 17.4999 54.4545 17.5579 56.0167L10.1241 56.1468Z" fill="url(#paint0_linear_6059_33695)"/>
<path d="M56.8866 57.2751C54.568 57.2751 52.5828 56.2481 50.8439 55.4959C49.134 54.7438 47.7139 53.7168 46.5836 52.415C45.4533 51.0843 44.6128 49.5655 44.0622 47.8587C43.5115 46.1519 43.2362 44.3583 43.2362 42.4779C43.2362 40.5686 43.5695 38.8039 44.2361 37.1839C44.9316 35.5349 45.8735 34.1029 47.0618 32.8879C48.279 31.6729 49.6991 30.7327 51.3221 30.0673C52.9451 29.373 54.7129 29.0259 56.6257 29.0259C58.6255 29.0259 60.4803 29.373 62.1902 30.0673C63.9001 30.7616 65.3927 31.7308 66.6679 32.9747C67.9431 34.2187 68.9284 35.6796 69.624 37.3574C70.3485 39.0353 70.7108 40.8579 70.7108 42.825C70.7108 47.1933 69.5081 50.5925 67.1026 53.0225C64.6971 55.4236 61.2628 57.2751 56.8866 57.2751ZM56.8866 49.5944C59.0022 49.5944 60.6107 49.0014 61.712 47.8153C62.8423 46.6292 63.4074 44.9224 63.4074 42.6949C63.4074 40.6987 62.7988 39.0932 61.5816 37.8782C60.3643 36.6632 58.7704 36.0556 56.7996 36.0556C55.6114 36.0556 54.5246 36.3739 53.5392 37.0103C52.5538 37.6178 51.7568 38.4423 51.1482 39.4837C50.5686 40.4962 50.2787 41.6245 50.2787 42.8684C50.2787 43.9677 50.4961 45.0381 50.9308 46.0795C51.3945 47.121 52.1191 47.9744 53.1045 48.6398C54.0898 49.2762 55.3505 49.5944 56.8866 49.5944Z" fill="url(#paint1_linear_6059_33695)"/>
<path d="M56.8866 57.2751L45.2527 49.5944C42.1227 48.6398 38.0045 46.8462 35.512 45.5154C33.0486 44.1847 30.846 42.9118 28.9042 41.6968C26.9625 40.4818 25.4264 39.4259 24.2961 38.5291C23.1659 37.6323 22.6007 36.9958 22.6007 36.6198C22.6007 36.3594 22.963 35.9544 23.6875 35.4047C24.4121 34.8262 25.3974 34.1608 26.6437 33.4086C27.8899 32.6276 29.31 31.8175 30.904 30.9786C32.5269 30.1107 34.2223 29.2429 35.9902 28.375C37.7871 27.5071 39.5695 26.7116 41.3373 25.9883L39.2072 18.6115C37.4683 19.3347 35.599 20.217 33.5992 21.2585C31.6285 22.2999 29.6577 23.3992 27.687 24.5564C25.7162 25.6846 23.8614 26.8128 22.1225 27.9411C20.4126 29.0404 18.949 30.0095 17.7318 30.8484C17.8477 28.7366 17.9926 26.6393 18.1665 24.5564C18.3694 22.4445 18.6012 20.3761 18.8621 18.3511L11.2979 18.2209C11.0081 21.461 10.7617 24.7878 10.5588 28.2014C10.356 31.615 10.2111 34.9708 10.1241 38.2687C10.0372 41.5666 9.9937 44.691 9.9937 47.6417C9.9937 50.795 10.0372 53.63 10.1241 56.1468L17.5579 56.0167C17.4999 54.4545 17.442 52.7766 17.384 50.983C17.355 49.1605 17.3405 47.2801 17.3405 45.3419C17.3405 44.2715 17.3405 43.2011 17.3405 42.1307C18.7606 43.23 20.543 44.5463 22.6877 46.0795C24.8613 47.6128 27.3247 49.2473 30.078 50.983C41.8619 57.6222 53.6685 57.2751 56.8866 57.2751ZM56.8866 57.2751C54.568 57.2751 52.5828 56.2481 50.8439 55.4959C49.134 54.7438 47.7139 53.7168 46.5836 52.415C45.4533 51.0843 44.6128 49.5655 44.0622 47.8587C43.5115 46.1519 43.2362 44.3583 43.2362 42.4779C43.2362 40.5686 43.5695 38.8039 44.2361 37.1839C44.9316 35.5349 45.8735 34.1029 47.0618 32.8879C48.279 31.6729 49.6991 30.7327 51.3221 30.0673C52.9451 29.373 54.7129 29.0259 56.6257 29.0259C58.6255 29.0259 60.4803 29.373 62.1902 30.0673C63.9001 30.7616 65.3927 31.7308 66.6679 32.9747C67.9431 34.2187 68.9284 35.6796 69.624 37.3574C70.3485 39.0353 70.7108 40.8579 70.7108 42.825C70.7108 47.1933 69.5081 50.5925 67.1026 53.0225C64.6971 55.4236 61.2628 57.2751 56.8866 57.2751ZM10.1348 18.3781C9.65743 29.0797 8.84747 51.325 9.4262 54.6934M18.6281 28.7475C23.441 25.4611 35.0862 19.1512 38.9636 17.7778M43.0697 42.2383C42.3108 36.6079 47.9542 25.8596 60.4802 28.7446M60.352 57.0328C65.9184 55.6542 68.4718 53.8084 70.7736 48.0016M56.8866 49.5944C59.0022 49.5944 60.6107 49.0014 61.712 47.8153C62.8423 46.6292 63.4074 44.9224 63.4074 42.6949C63.4074 40.6987 62.7988 39.0932 61.5816 37.8782C60.3643 36.6632 58.7704 36.0556 56.7996 36.0556C55.6114 36.0556 54.5246 36.3739 53.5392 37.0103C52.5538 37.6178 51.7568 38.4423 51.1482 39.4837C50.5686 40.4962 50.2787 41.6245 50.2787 42.8684C50.2787 43.9677 50.4961 45.0381 50.9308 46.0795C51.3945 47.121 52.1191 47.9744 53.1045 48.6398C54.0898 49.2762 55.3505 49.5944 56.8866 49.5944Z" stroke="url(#paint2_linear_6059_33695)" stroke-width="0.245163"/>
<defs>
<linearGradient id="paint0_linear_6059_33695" x1="7.50862" y1="17.7778" x2="70.3263" y2="48.2307" gradientUnits="userSpaceOnUse">
<stop stop-color="#FD8B51"/>
<stop offset="0.540837" stop-color="#469DA3"/>
<stop offset="1" stop-color="#FD8B51"/>
</linearGradient>
<linearGradient id="paint1_linear_6059_33695" x1="7.50862" y1="17.7778" x2="70.3263" y2="48.2307" gradientUnits="userSpaceOnUse">
<stop stop-color="#FD8B51"/>
<stop offset="0.540837" stop-color="#469DA3"/>
<stop offset="1" stop-color="#FD8B51"/>
</linearGradient>
<linearGradient id="paint2_linear_6059_33695" x1="111.84" y1="30.4136" x2="111.84" y2="48.4207" gradientUnits="userSpaceOnUse">
<stop stop-color="white" stop-opacity="0"/>
<stop offset="0.49"/>
<stop offset="1" stop-color="white" stop-opacity="0"/>
</linearGradient>
</defs>
</svg>
