<svg width="62" height="40" viewBox="0 0 62 40" fill="none" xmlns="http://www.w3.org/2000/svg">
<path d="M47.7835 39.6127L36.1497 31.9321C33.0197 30.9774 28.9014 29.1838 26.409 27.8531C23.9456 26.5223 21.743 25.2495 19.8012 24.0344C17.8594 22.8194 16.3234 21.7635 15.1931 20.8667C14.0628 19.9699 13.4977 19.3335 13.4977 18.9574C13.4977 18.697 13.86 18.292 14.5845 17.7424C15.309 17.1638 16.2944 16.4984 17.5406 15.7463C18.7868 14.9652 20.2069 14.1552 21.8009 13.3162C23.4239 12.4484 25.1193 11.5805 26.8872 10.7126C28.6841 9.84477 30.4664 9.04922 32.2343 8.326L30.1042 0.949098C28.3653 1.67232 26.4959 2.55466 24.4962 3.5961C22.5255 4.63755 20.5547 5.73685 18.584 6.89401C16.6132 8.02224 14.7584 9.15047 13.0195 10.2787C11.3096 11.378 9.846 12.3471 8.62877 13.1861C8.7447 11.0743 8.88961 8.9769 9.0635 6.89401C9.26637 4.78219 9.49822 2.71377 9.75906 0.688737L2.19485 0.558556C1.90503 3.7986 1.65869 7.12544 1.45582 10.5391C1.25294 13.9527 1.10804 17.3085 1.02109 20.6064C0.934147 23.9043 0.890674 27.0286 0.890674 29.9794C0.890674 33.1326 0.934147 35.9677 1.02109 38.4845L8.45488 38.3543C8.39692 36.7921 8.33895 35.1143 8.28099 33.3207C8.25201 31.4981 8.23752 29.6177 8.23752 27.6795C8.23752 26.6091 8.23752 25.5388 8.23752 24.4684C9.65762 25.5677 11.44 26.884 13.5846 28.4172C15.7583 29.9504 18.2217 31.5849 20.975 33.3207C32.7589 39.9599 44.5655 39.6127 47.7835 39.6127ZM47.7835 39.6127C45.465 39.6127 43.4798 38.5857 41.7409 37.8336C40.0309 37.0814 38.6108 36.0544 37.4806 34.7526C36.3503 33.4219 35.5098 31.9031 34.9592 30.1963C34.4085 28.4895 34.1332 26.6959 34.1332 24.8155C34.1332 22.9062 34.4665 21.1415 35.133 19.5215C35.8286 17.8726 36.7705 16.4406 37.9588 15.2256C39.176 14.0105 40.5961 13.0704 42.2191 12.405C43.842 11.7107 45.6099 11.3635 47.5227 11.3635C49.5224 11.3635 51.3772 11.7107 53.0872 12.405C54.7971 13.0993 56.2896 14.0684 57.5648 15.3124C58.84 16.5563 59.8254 18.0172 60.521 19.6951C61.2455 21.373 61.6078 23.1955 61.6078 25.1627C61.6078 29.531 60.405 32.9301 57.9995 35.3602C55.5941 37.7613 52.1598 39.6127 47.7835 39.6127ZM1.03173 0.715701C0.554406 11.4173 -0.255559 33.6626 0.323173 37.031M9.52502 11.0851C14.338 7.79876 25.9832 1.48885 29.8606 0.115479M33.9667 24.5759C33.2078 18.9456 38.8512 8.19724 51.3772 11.0823M51.249 39.3705C56.8154 37.9919 59.3688 36.1461 61.6705 30.3392M47.7835 31.9321C49.8992 31.9321 51.5077 31.339 52.609 30.1529C53.7393 28.9668 54.3044 27.26 54.3044 25.0325C54.3044 23.0364 53.6958 21.4308 52.4785 20.2158C51.2613 19.0008 49.6673 18.3933 47.6966 18.3933C46.5083 18.3933 45.4215 18.7115 44.4361 19.3479C43.4508 19.9555 42.6538 20.7799 42.0452 21.8214C41.4655 22.8339 41.1757 23.9621 41.1757 25.2061C41.1757 26.3054 41.3931 27.3757 41.8278 28.4172C42.2915 29.4586 43.0161 30.312 44.0014 30.9774C44.9868 31.6138 46.2475 31.9321 47.7835 31.9321Z" stroke="url(#paint0_linear_1815_10110)" stroke-width="0.245163"/>
<defs>
<linearGradient id="paint0_linear_1815_10110" x1="102.737" y1="12.7512" x2="102.737" y2="30.7584" gradientUnits="userSpaceOnUse">
<stop stop-color="white" stop-opacity="0"/>
<stop offset="0.49"/>
<stop offset="1" stop-color="white" stop-opacity="0"/>
</linearGradient>
</defs>
</svg>
