<svg width="720" height="992" viewBox="0 0 720 992" fill="none" xmlns="http://www.w3.org/2000/svg">
<g clip-path="url(#clip0_6061_33700)">
<g filter="url(#filter0_f_6061_33700)">
<path d="M778.266 -132.704L1008.78 97.8127L278.1 757.111L181.583 660.593L778.266 -132.704Z" fill="url(#paint0_linear_6061_33700)"/>
</g>
<g filter="url(#filter1_f_6061_33700)">
<path d="M814.585 -6.7168L893.053 71.7515L435.394 505.112L402.539 472.257L814.585 -6.7168Z" fill="white" fill-opacity="0.02"/>
</g>
<g filter="url(#filter2_f_6061_33700)">
<path d="M689.294 -281L796.107 -174.187L385.275 203.569L340.552 158.846L689.294 -281Z" fill="white" fill-opacity="0.02"/>
</g>
<g opacity="0.02" filter="url(#filter3_f_6061_33700)">
<path d="M610.799 -227.309L746.578 -79.7992L415.276 182.966L358.426 121.204L610.799 -227.309Z" fill="url(#paint1_linear_6061_33700)"/>
</g>
<rect x="-44.5098" width="89.0545" height="91.3091" fill="white" fill-opacity="0.03"/>
<rect x="-44.0098" y="0.5" width="88.0545" height="90.3091" stroke="white" stroke-opacity="0.05"/>
<rect x="-44.0098" y="91.8096" width="88.0545" height="88.0545" stroke="white" stroke-opacity="0.05"/>
<rect x="-44.0098" y="180.863" width="88.0545" height="89.1818" stroke="white" stroke-opacity="0.04"/>
<rect x="-44.0098" y="271.046" width="88.0545" height="90.3091" stroke="white" stroke-opacity="0.04"/>
<rect x="-44.0098" y="362.354" width="88.0545" height="88.0545" stroke="white" stroke-opacity="0.03"/>
<rect x="-44.0098" y="451.409" width="88.0545" height="89.1818" stroke="white" stroke-opacity="0.02"/>
<rect x="-44.0098" y="541.591" width="88.0545" height="88.0545" stroke="white" stroke-opacity="0.02"/>
<rect x="-44.0098" y="630.646" width="88.0545" height="90.3091" stroke="white" stroke-opacity="0.01"/>
<rect x="-44.0098" y="721.954" width="88.0545" height="89.1818" stroke="white" stroke-opacity="0.01"/>
<rect x="-44.0098" y="812.137" width="88.0545" height="88.0545" stroke="white" stroke-opacity="0.01"/>
<rect x="44.5449" width="90.1818" height="91.3091" fill="white" fill-opacity="0.01"/>
<rect x="45.0449" y="0.5" width="89.1818" height="90.3091" stroke="white" stroke-opacity="0.05"/>
<rect x="45.0449" y="91.8096" width="89.1818" height="88.0545" stroke="white" stroke-opacity="0.05"/>
<rect x="45.0449" y="180.863" width="89.1818" height="89.1818" stroke="white" stroke-opacity="0.04"/>
<rect x="45.0449" y="271.046" width="89.1818" height="90.3091" stroke="white" stroke-opacity="0.04"/>
<rect x="45.0449" y="362.354" width="89.1818" height="88.0545" stroke="white" stroke-opacity="0.03"/>
<rect x="44.5449" y="450.909" width="90.1818" height="90.1818" fill="white" fill-opacity="0.03"/>
<rect x="45.0449" y="451.409" width="89.1818" height="89.1818" stroke="white" stroke-opacity="0.02"/>
<rect x="44.5449" y="541.091" width="90.1818" height="89.0545" fill="white" fill-opacity="0.01"/>
<rect x="45.0449" y="541.591" width="89.1818" height="88.0545" stroke="white" stroke-opacity="0.02"/>
<rect x="45.0449" y="630.646" width="89.1818" height="90.3091" stroke="white" stroke-opacity="0.01"/>
<rect x="44.5449" y="721.454" width="90.1818" height="90.1818" fill="white" fill-opacity="0.01"/>
<rect x="45.0449" y="721.954" width="89.1818" height="89.1818" stroke="white" stroke-opacity="0.01"/>
<rect x="135.227" y="0.5" width="90.3091" height="90.3091" stroke="white" stroke-opacity="0.05"/>
<rect x="134.727" y="91.3096" width="91.3091" height="89.0545" fill="white" fill-opacity="0.01"/>
<rect x="135.227" y="91.8096" width="90.3091" height="88.0545" stroke="white" stroke-opacity="0.05"/>
<rect x="135.227" y="180.863" width="90.3091" height="89.1818" stroke="white" stroke-opacity="0.04"/>
<rect x="134.727" y="270.546" width="91.3091" height="91.3091" fill="white" fill-opacity="0.02"/>
<rect x="135.227" y="271.046" width="90.3091" height="90.3091" stroke="white" stroke-opacity="0.03"/>
<rect x="135.227" y="362.354" width="90.3091" height="88.0545" stroke="white" stroke-opacity="0.03"/>
<rect x="135.227" y="451.409" width="90.3091" height="89.1818" stroke="white" stroke-opacity="0.02"/>
<rect x="135.227" y="541.591" width="90.3091" height="88.0545" stroke="white" stroke-opacity="0.02"/>
<rect x="135.227" y="630.646" width="90.3091" height="90.3091" stroke="white" stroke-opacity="0.01"/>
<rect x="134.727" y="721.454" width="91.3091" height="90.1818" fill="white" fill-opacity="0.01"/>
<rect x="135.227" y="721.954" width="90.3091" height="89.1818" stroke="white" stroke-opacity="0.01"/>
<rect x="226.536" y="0.5" width="88.0545" height="90.3091" stroke="white" stroke-opacity="0.05"/>
<rect x="226.536" y="91.8096" width="88.0545" height="88.0545" stroke="white" stroke-opacity="0.05"/>
<rect x="226.536" y="180.863" width="88.0545" height="89.1818" stroke="white" stroke-opacity="0.04"/>
<rect x="226.536" y="271.046" width="88.0545" height="90.3091" stroke="white" stroke-opacity="0.03"/>
<rect x="226.536" y="362.354" width="88.0545" height="88.0545" stroke="white" stroke-opacity="0.03"/>
<rect x="226.036" y="450.909" width="89.0545" height="90.1818" fill="white" fill-opacity="0.01"/>
<rect x="226.536" y="451.409" width="88.0545" height="89.1818" stroke="white" stroke-opacity="0.02"/>
<rect x="226.536" y="541.591" width="88.0545" height="88.0545" stroke="white" stroke-opacity="0.02"/>
<rect x="226.536" y="630.646" width="88.0545" height="90.3091" stroke="white" stroke-opacity="0.01"/>
<rect x="226.536" y="721.954" width="88.0545" height="89.1818" stroke="white" stroke-opacity="0.01"/>
<rect x="226.036" y="811.637" width="89.0545" height="89.0545" fill="white" fill-opacity="0.01"/>
<rect x="226.036" y="900.691" width="89.0545" height="91.3091" fill="white" fill-opacity="0.01"/>
<rect x="315.591" y="0.5" width="89.1818" height="90.3091" stroke="white" stroke-opacity="0.05"/>
<rect x="315.091" y="91.3096" width="90.1818" height="89.0545" fill="white" fill-opacity="0.03"/>
<rect x="315.591" y="91.8096" width="89.1818" height="88.0545" stroke="white" stroke-opacity="0.02"/>
<rect x="315.591" y="180.863" width="89.1818" height="89.1818" stroke="white" stroke-opacity="0.04"/>
<rect x="315.591" y="271.046" width="89.1818" height="90.3091" stroke="white" stroke-opacity="0.03"/>
<rect x="315.591" y="362.354" width="89.1818" height="88.0545" stroke="white" stroke-opacity="0.03"/>
<rect x="315.591" y="451.409" width="89.1818" height="89.1818" stroke="white" stroke-opacity="0.02"/>
<rect x="315.591" y="541.591" width="89.1818" height="88.0545" stroke="white" stroke-opacity="0.02"/>
<rect x="315.591" y="630.646" width="89.1818" height="90.3091" stroke="white" stroke-opacity="0.01"/>
<rect x="315.591" y="721.954" width="89.1818" height="89.1818" stroke="white" stroke-opacity="0.01"/>
<rect x="315.091" y="900.691" width="90.1818" height="91.3091" fill="white" fill-opacity="0.01"/>
<rect x="405.772" y="0.5" width="88.0545" height="90.3091" stroke="white" stroke-opacity="0.05"/>
<rect x="405.772" y="91.8096" width="88.0545" height="88.0545" stroke="white" stroke-opacity="0.05"/>
<rect x="405.772" y="180.863" width="88.0545" height="89.1818" stroke="white" stroke-opacity="0.04"/>
<rect x="405.272" y="270.546" width="89.0545" height="91.3091" fill="white" fill-opacity="0.01"/>
<rect x="405.772" y="271.046" width="88.0545" height="90.3091" stroke="white" stroke-opacity="0.03"/>
<rect x="405.272" y="361.854" width="89.0545" height="89.0545" fill="white" fill-opacity="0.01"/>
<rect x="405.772" y="362.354" width="88.0545" height="88.0545" stroke="white" stroke-opacity="0.03"/>
<rect x="405.772" y="451.409" width="88.0545" height="89.1818" stroke="white" stroke-opacity="0.02"/>
<rect x="405.272" y="541.091" width="89.0545" height="89.0545" fill="white" fill-opacity="0.03"/>
<rect x="405.772" y="541.591" width="88.0545" height="88.0545" stroke="white" stroke-opacity="0.02"/>
<rect x="405.772" y="630.646" width="88.0545" height="90.3091" stroke="white" stroke-opacity="0.01"/>
<rect x="405.772" y="721.954" width="88.0545" height="89.1818" stroke="white" stroke-opacity="0.01"/>
<rect x="405.772" y="901.191" width="88.0545" height="90.3091" stroke="white" stroke-opacity="0.02"/>
<rect x="494.827" y="0.5" width="90.3091" height="90.3091" stroke="white" stroke-opacity="0.05"/>
<rect x="494.327" y="91.3096" width="91.3091" height="89.0545" fill="white" fill-opacity="0.01"/>
<rect x="494.827" y="91.8096" width="90.3091" height="88.0545" stroke="white" stroke-opacity="0.04"/>
<rect x="494.827" y="180.863" width="90.3091" height="89.1818" stroke="white" stroke-opacity="0.04"/>
<rect x="494.827" y="271.046" width="90.3091" height="90.3091" stroke="white" stroke-opacity="0.03"/>
<rect x="494.827" y="362.354" width="90.3091" height="88.0545" stroke="white" stroke-opacity="0.03"/>
<rect x="494.827" y="451.409" width="90.3091" height="89.1818" stroke="white" stroke-opacity="0.02"/>
<rect x="494.827" y="541.591" width="90.3091" height="88.0545" stroke="white" stroke-opacity="0.02"/>
<rect x="494.827" y="630.646" width="90.3091" height="90.3091" stroke="white" stroke-opacity="0.01"/>
<rect x="494.827" y="721.954" width="90.3091" height="89.1818" stroke="white" stroke-opacity="0.01"/>
<rect x="586.137" y="0.5" width="89.1818" height="90.3091" stroke="white" stroke-opacity="0.05"/>
<rect x="586.137" y="91.8096" width="89.1818" height="88.0545" stroke="white" stroke-opacity="0.04"/>
<rect x="586.137" y="180.863" width="89.1818" height="89.1818" stroke="white" stroke-opacity="0.04"/>
<rect x="586.137" y="271.046" width="89.1818" height="90.3091" stroke="white" stroke-opacity="0.03"/>
<rect x="585.637" y="361.854" width="90.1818" height="89.0545" fill="white" fill-opacity="0.03"/>
<rect x="586.137" y="362.354" width="89.1818" height="88.0545" stroke="white" stroke-opacity="0.03"/>
<g opacity="0.1">
<rect x="585.637" y="450.909" width="90.1818" height="90.1818" fill="white" fill-opacity="0.03"/>
<rect x="586.137" y="451.409" width="89.1818" height="89.1818" stroke="white" stroke-opacity="0.02"/>
</g>
<rect x="586.137" y="541.591" width="89.1818" height="88.0545" stroke="white" stroke-opacity="0.02"/>
<rect x="586.137" y="630.646" width="89.1818" height="90.3091" stroke="white" stroke-opacity="0.01"/>
<rect x="586.137" y="721.954" width="89.1818" height="89.1818" stroke="white" stroke-opacity="0.01"/>
<rect x="676.318" y="0.5" width="88.0545" height="90.3091" stroke="white" stroke-opacity="0.05"/>
<rect x="676.318" y="91.8096" width="88.0545" height="88.0545" stroke="white" stroke-opacity="0.04"/>
<rect x="676.318" y="180.863" width="88.0545" height="89.1818" stroke="white" stroke-opacity="0.04"/>
<rect x="676.318" y="271.046" width="88.0545" height="90.3091" stroke="white" stroke-opacity="0.03"/>
<rect x="676.318" y="362.354" width="88.0545" height="88.0545" stroke="white" stroke-opacity="0.03"/>
<rect x="676.318" y="451.409" width="88.0545" height="89.1818" stroke="white" stroke-opacity="0.02"/>
<rect x="675.818" y="541.091" width="89.0545" height="89.0545" fill="white" fill-opacity="0.01"/>
<rect x="676.318" y="541.591" width="88.0545" height="88.0545" stroke="white" stroke-opacity="0.02"/>
<rect x="676.318" y="630.646" width="88.0545" height="90.3091" stroke="white" stroke-opacity="0.01"/>
<rect x="676.318" y="721.954" width="88.0545" height="89.1818" stroke="white" stroke-opacity="0.01"/>
</g>
<defs>
<filter id="filter0_f_6061_33700" x="81.583" y="-232.704" width="1027.2" height="1089.81" filterUnits="userSpaceOnUse" color-interpolation-filters="sRGB">
<feFlood flood-opacity="0" result="BackgroundImageFix"/>
<feBlend mode="normal" in="SourceGraphic" in2="BackgroundImageFix" result="shape"/>
<feGaussianBlur stdDeviation="50" result="effect1_foregroundBlur_6061_33700"/>
</filter>
<filter id="filter1_f_6061_33700" x="342.539" y="-66.7168" width="610.515" height="631.828" filterUnits="userSpaceOnUse" color-interpolation-filters="sRGB">
<feFlood flood-opacity="0" result="BackgroundImageFix"/>
<feBlend mode="normal" in="SourceGraphic" in2="BackgroundImageFix" result="shape"/>
<feGaussianBlur stdDeviation="30" result="effect1_foregroundBlur_6061_33700"/>
</filter>
<filter id="filter2_f_6061_33700" x="260.553" y="-361" width="615.555" height="644.569" filterUnits="userSpaceOnUse" color-interpolation-filters="sRGB">
<feFlood flood-opacity="0" result="BackgroundImageFix"/>
<feBlend mode="normal" in="SourceGraphic" in2="BackgroundImageFix" result="shape"/>
<feGaussianBlur stdDeviation="40" result="effect1_foregroundBlur_6061_33700"/>
</filter>
<filter id="filter3_f_6061_33700" x="258.426" y="-327.309" width="588.152" height="610.275" filterUnits="userSpaceOnUse" color-interpolation-filters="sRGB">
<feFlood flood-opacity="0" result="BackgroundImageFix"/>
<feBlend mode="normal" in="SourceGraphic" in2="BackgroundImageFix" result="shape"/>
<feGaussianBlur stdDeviation="50" result="effect1_foregroundBlur_6061_33700"/>
</filter>
<linearGradient id="paint0_linear_6061_33700" x1="893.524" y1="-17.4457" x2="198.534" y2="677.544" gradientUnits="userSpaceOnUse">
<stop offset="0.319741" stop-color="white" stop-opacity="0.06"/>
<stop offset="1" stop-color="white" stop-opacity="0"/>
</linearGradient>
<linearGradient id="paint1_linear_6061_33700" x1="678.689" y1="-153.554" x2="368.41" y2="132.051" gradientUnits="userSpaceOnUse">
<stop offset="0.366749" stop-color="white"/>
<stop offset="1" stop-color="white" stop-opacity="0"/>
</linearGradient>
<clipPath id="clip0_6061_33700">
<rect width="720" height="992" fill="white"/>
</clipPath>
</defs>
</svg>
