<svg width="201" height="196" viewBox="0 0 201 196" fill="none" xmlns="http://www.w3.org/2000/svg">
<g filter="url(#filter0_d_1815_10330)">
<rect x="60.5" y="60.4722" width="80" height="75.0559" rx="17.7778" fill="url(#paint0_linear_1815_10330)" shape-rendering="crispEdges"/>
<rect x="61.5" y="61.4722" width="78" height="73.0559" rx="16.7778" stroke="url(#paint1_linear_1815_10330)" stroke-width="2" shape-rendering="crispEdges"/>
<path d="M117.387 117.747L105.753 110.067C102.623 109.112 98.5045 107.318 96.012 105.988C93.5486 104.657 91.346 103.384 89.4042 102.169C87.4625 100.954 85.9264 99.898 84.7961 99.0012C83.6659 98.1044 83.1007 97.468 83.1007 97.0919C83.1007 96.8316 83.463 96.4266 84.1875 95.8769C84.9121 95.2983 85.8974 94.633 87.1437 93.8808C88.3899 93.0997 89.81 92.2897 91.404 91.4508C93.0269 90.5829 94.7223 89.715 96.4902 88.8472C98.2871 87.9793 100.069 87.1837 101.837 86.4605L99.7072 79.0836C97.9683 79.8068 96.099 80.6892 94.0992 81.7306C92.1285 82.7721 90.1577 83.8714 88.187 85.0285C86.2162 86.1568 84.3614 87.285 82.6225 88.4132C80.9126 89.5125 79.449 90.4816 78.2318 91.3206C78.3477 89.2088 78.4926 87.1114 78.6665 85.0285C78.8694 82.9167 79.1012 80.8483 79.3621 78.8233L71.7979 78.6931C71.5081 81.9331 71.2617 85.26 71.0588 88.6736C70.856 92.0872 70.7111 95.443 70.6241 98.7409C70.5372 102.039 70.4937 105.163 70.4937 108.114C70.4937 111.267 70.5372 114.102 70.6241 116.619L78.0579 116.489C77.9999 114.927 77.942 113.249 77.884 111.455C77.855 109.633 77.8405 107.752 77.8405 105.814C77.8405 104.744 77.8405 103.673 77.8405 102.603C79.2606 103.702 81.043 105.018 83.1877 106.552C85.3613 108.085 87.8247 109.719 90.578 111.455C102.362 118.094 114.168 117.747 117.387 117.747ZM117.387 117.747C115.068 117.747 113.083 116.72 111.344 115.968C109.634 115.216 108.214 114.189 107.084 112.887C105.953 111.556 105.113 110.038 104.562 108.331C104.012 106.624 103.736 104.83 103.736 102.95C103.736 101.041 104.069 99.2761 104.736 97.656C105.432 96.0071 106.374 94.5751 107.562 93.3601C108.779 92.1451 110.199 91.2049 111.822 90.5395C113.445 89.8452 115.213 89.4981 117.126 89.4981C119.125 89.4981 120.98 89.8452 122.69 90.5395C124.4 91.2338 125.893 92.2029 127.168 93.4469C128.443 94.6908 129.428 96.1517 130.124 97.8296C130.849 99.5075 131.211 101.33 131.211 103.297C131.211 107.665 130.008 111.065 127.603 113.495C125.197 115.896 121.763 117.747 117.387 117.747ZM70.6348 78.8502C70.1574 89.5518 69.3475 111.797 69.9262 115.166M79.1281 89.2197C83.941 85.9333 95.5862 79.6234 99.4636 78.25M103.57 102.71C102.811 97.0801 108.454 86.3318 120.98 89.2168M120.852 117.505C126.418 116.126 128.972 114.281 131.274 108.474M117.387 110.067C119.502 110.067 121.111 109.474 122.212 108.287C123.342 107.101 123.907 105.395 123.907 103.167C123.907 101.171 123.299 99.5654 122.082 98.3503C120.864 97.1353 119.27 96.5278 117.3 96.5278C116.111 96.5278 115.025 96.846 114.039 97.4825C113.054 98.09 112.257 98.9145 111.648 99.9559C111.069 100.968 110.779 102.097 110.779 103.341C110.779 104.44 110.996 105.51 111.431 106.552C111.895 107.593 112.619 108.447 113.604 109.112C114.59 109.748 115.851 110.067 117.387 110.067Z" stroke="url(#paint2_linear_1815_10330)" stroke-width="0.245163"/>
</g>
<defs>
<filter id="filter0_d_1815_10330" x="0.5" y="0.472168" width="200" height="195.056" filterUnits="userSpaceOnUse" color-interpolation-filters="sRGB">
<feFlood flood-opacity="0" result="BackgroundImageFix"/>
<feColorMatrix in="SourceAlpha" type="matrix" values="0 0 0 0 0 0 0 0 0 0 0 0 0 0 0 0 0 0 127 0" result="hardAlpha"/>
<feOffset/>
<feGaussianBlur stdDeviation="30"/>
<feComposite in2="hardAlpha" operator="out"/>
<feColorMatrix type="matrix" values="0 0 0 0 1 0 0 0 0 1 0 0 0 0 1 0 0 0 0.2 0"/>
<feBlend mode="normal" in2="BackgroundImageFix" result="effect1_dropShadow_1815_10330"/>
<feBlend mode="normal" in="SourceGraphic" in2="effect1_dropShadow_1815_10330" result="shape"/>
</filter>
<linearGradient id="paint0_linear_1815_10330" x1="100.5" y1="60.4722" x2="100.5" y2="135.528" gradientUnits="userSpaceOnUse">
<stop stop-color="white"/>
<stop offset="1" stop-color="#B5BFB7"/>
</linearGradient>
<linearGradient id="paint1_linear_1815_10330" x1="100.5" y1="60.4722" x2="100.5" y2="135.528" gradientUnits="userSpaceOnUse">
<stop stop-color="white" stop-opacity="0.4"/>
<stop offset="1" stop-color="white" stop-opacity="0.1"/>
</linearGradient>
<linearGradient id="paint2_linear_1815_10330" x1="172.34" y1="90.8858" x2="172.34" y2="108.893" gradientUnits="userSpaceOnUse">
<stop stop-color="white" stop-opacity="0"/>
<stop offset="0.49"/>
<stop offset="1" stop-color="white" stop-opacity="0"/>
</linearGradient>
</defs>
</svg>
