<svg xmlns="http://www.w3.org/2000/svg" width="18" height="17" viewBox="0 0 18 17" fill="none">
  <g filter="url(#filter0_d_5323_14873)">
    <path d="M12.3335 0.832764H5.66683C3.66683 0.832764 2.3335 1.83276 2.3335 4.1661V8.83276C2.3335 11.1661 3.66683 12.1661 5.66683 12.1661H12.3335C14.3335 12.1661 15.6668 11.1661 15.6668 8.83276V4.1661C15.6668 1.83276 14.3335 0.832764 12.3335 0.832764ZM3.50016 4.1661C3.50016 2.97276 4.4735 1.99943 5.66683 1.99943H6.66683C6.94016 1.99943 7.16683 2.2261 7.16683 2.49943C7.16683 2.77276 6.94016 2.99943 6.66683 2.99943H5.66683C5.02683 2.99943 4.50016 3.5261 4.50016 4.1661V5.1661C4.50016 5.43943 4.2735 5.6661 4.00016 5.6661C3.72683 5.6661 3.50016 5.43943 3.50016 5.1661V4.1661ZM6.66683 10.9994H5.66683C4.4735 10.9994 3.50016 10.0261 3.50016 8.83276V7.83276C3.50016 7.55943 3.72683 7.33276 4.00016 7.33276C4.2735 7.33276 4.50016 7.55943 4.50016 7.83276V8.83276C4.50016 9.47276 5.02683 9.99943 5.66683 9.99943H6.66683C6.94016 9.99943 7.16683 10.2261 7.16683 10.4994C7.16683 10.7728 6.94016 10.9994 6.66683 10.9994ZM9.00016 8.49943C7.8935 8.49943 7.00016 7.6061 7.00016 6.49943C7.00016 5.39276 7.8935 4.49943 9.00016 4.49943C10.1068 4.49943 11.0002 5.39276 11.0002 6.49943C11.0002 7.6061 10.1068 8.49943 9.00016 8.49943ZM14.5002 8.83276C14.5002 10.0261 13.5268 10.9994 12.3335 10.9994H11.3335C11.0602 10.9994 10.8335 10.7728 10.8335 10.4994C10.8335 10.2261 11.0602 9.99943 11.3335 9.99943H12.3335C12.9735 9.99943 13.5002 9.47276 13.5002 8.83276V7.83276C13.5002 7.55943 13.7268 7.33276 14.0002 7.33276C14.2735 7.33276 14.5002 7.55943 14.5002 7.83276V8.83276ZM14.5002 5.1661C14.5002 5.43943 14.2735 5.6661 14.0002 5.6661C13.7268 5.6661 13.5002 5.43943 13.5002 5.1661V4.1661C13.5002 3.5261 12.9735 2.99943 12.3335 2.99943H11.3335C11.0602 2.99943 10.8335 2.77276 10.8335 2.49943C10.8335 2.2261 11.0602 1.99943 11.3335 1.99943H12.3335C13.5268 1.99943 14.5002 2.97276 14.5002 4.1661V5.1661Z" fill="url(#paint0_linear_5323_14873)"/>
  </g>
  <defs>
    <filter id="filter0_d_5323_14873" x="0.222043" y="0.832764" width="17.5564" height="15.5562" filterUnits="userSpaceOnUse" color-interpolation-filters="sRGB">
      <feFlood flood-opacity="0" result="BackgroundImageFix"/>
      <feColorMatrix in="SourceAlpha" type="matrix" values="0 0 0 0 0 0 0 0 0 0 0 0 0 0 0 0 0 0 127 0" result="hardAlpha"/>
      <feOffset dy="2.11145"/>
      <feGaussianBlur stdDeviation="1.05573"/>
      <feComposite in2="hardAlpha" operator="out"/>
      <feColorMatrix type="matrix" values="0 0 0 0 0 0 0 0 0 0 0 0 0 0 0 0 0 0 0.1 0"/>
      <feBlend mode="normal" in2="BackgroundImageFix" result="effect1_dropShadow_5323_14873"/>
      <feBlend mode="normal" in="SourceGraphic" in2="effect1_dropShadow_5323_14873" result="shape"/>
    </filter>
    <linearGradient id="paint0_linear_5323_14873" x1="9.00017" y1="-0.231337" x2="9.00017" y2="14.2543" gradientUnits="userSpaceOnUse">
      <stop stop-color="white"/>
      <stop offset="0.880413" stop-color="#D5E9D5"/>
    </linearGradient>
  </defs>
</svg>