<svg xmlns="http://www.w3.org/2000/svg" width="16" height="17" viewBox="0 0 16 17" fill="none">
  <g clip-path="url(#clip0_1815_7776)">
    <g filter="url(#filter0_d_1815_7776)">
      <path d="M16.0001 13.2134C16.0001 13.9961 15.5455 14.7014 14.8355 15.0314C13.5088 15.6487 11.1155 16.4994 8.00014 16.4994C4.73014 16.4994 1.88748 14.9374 0.804142 13.9027C0.283475 13.4047 -0.00652489 12.7181 -0.00585823 11.9967C-0.00319156 9.59607 0.274142 4.21007 4.19081 1.19807C4.19081 1.19807 5.00014 0.483398 6.00014 0.483398C7.02948 0.483398 7.71014 1.00873 7.95348 1.56473C8.08414 1.8634 7.92814 2.2114 7.62547 2.3314L6.67948 2.6754L6.66681 3.0314C6.66414 3.2814 6.46747 3.48607 6.21814 3.4994L4.78681 3.93207C4.41948 4.97007 5.10481 8.31607 4.21281 10.6674C4.56281 10.2441 6.11614 8.54873 8.33348 8.4994C9.73481 8.4694 11.0821 9.7814 11.1128 9.8114C11.2435 9.9454 11.4168 10.0127 11.5901 10.0127C11.7581 10.0127 11.9255 9.9494 12.0548 9.82407C12.3188 9.56673 12.3241 9.14473 12.0681 8.8814C12.0368 8.84873 11.6821 8.48473 11.1175 8.10073C11.7068 7.61807 12.4901 7.15073 13.3335 7.15073C13.6308 7.15073 13.9228 7.16607 14.1981 7.1894C15.2228 7.27807 16.0001 8.15207 16.0001 9.18007V13.2134Z" fill="url(#paint0_linear_1815_7776)"/>
    </g>
  </g>
  <defs>
    <filter id="filter0_d_1815_7776" x="-2.11731" y="0.483398" width="20.2288" height="20.239" filterUnits="userSpaceOnUse" color-interpolation-filters="sRGB">
      <feFlood flood-opacity="0" result="BackgroundImageFix"/>
      <feColorMatrix in="SourceAlpha" type="matrix" values="0 0 0 0 0 0 0 0 0 0 0 0 0 0 0 0 0 0 127 0" result="hardAlpha"/>
      <feOffset dy="2.11145"/>
      <feGaussianBlur stdDeviation="1.05573"/>
      <feComposite in2="hardAlpha" operator="out"/>
      <feColorMatrix type="matrix" values="0 0 0 0 0 0 0 0 0 0 0 0 0 0 0 0 0 0 0.1 0"/>
      <feBlend mode="normal" in2="BackgroundImageFix" result="effect1_dropShadow_1815_7776"/>
      <feBlend mode="normal" in="SourceGraphic" in2="effect1_dropShadow_1815_7776" result="shape"/>
    </filter>
    <linearGradient id="paint0_linear_1815_7776" x1="7.99715" y1="-1.02036" x2="7.99715" y2="19.4503" gradientUnits="userSpaceOnUse">
      <stop stop-color="white"/>
      <stop offset="0.880413" stop-color="#DFDFDF"/>
    </linearGradient>
    <clipPath id="clip0_1815_7776">
      <rect width="16" height="16" fill="white" transform="translate(0 0.499512)"/>
    </clipPath>
  </defs>
</svg>