<svg width="52" height="52" viewBox="0 0 52 52" fill="none" xmlns="http://www.w3.org/2000/svg">
<path d="M26 4.75C14.2912 4.75 4.75 14.2912 4.75 26C4.75 37.7088 14.2912 47.25 26 47.25C37.7088 47.25 47.25 37.7088 47.25 26C47.25 14.2912 37.7088 4.75 26 4.75ZM36.1575 21.1125L24.1087 33.1612C23.8112 33.4587 23.4075 33.6287 22.9825 33.6287C22.5575 33.6287 22.1537 33.4587 21.8563 33.1612L15.8425 27.1475C15.2262 26.5312 15.2262 25.5112 15.8425 24.895C16.4587 24.2787 17.4787 24.2787 18.095 24.895L22.9825 29.7825L33.905 18.86C34.5212 18.2438 35.5413 18.2438 36.1575 18.86C36.7738 19.4763 36.7738 20.475 36.1575 21.1125Z" fill="white"/>
</svg>
