<svg width="60" height="58" viewBox="0 0 60 58" fill="none" xmlns="http://www.w3.org/2000/svg">
<rect width="59.4208" height="58" rx="8" fill="#E7854D" fill-opacity="0.05"/>
<path fill-rule="evenodd" clip-rule="evenodd" d="M36.8626 16.4714C33.5007 16.4714 30.7754 19.1968 30.7754 22.5587C30.7754 25.9205 33.5007 28.6459 36.8626 28.6459C38.8534 28.6459 40.621 27.6913 41.7334 26.2104C42.0897 25.736 42.7631 25.6403 43.2374 25.9966C43.7118 26.3529 43.8075 27.0263 43.4512 27.5007C41.9505 29.4986 39.5577 30.7943 36.8626 30.7943C32.3142 30.7943 28.627 27.1071 28.627 22.5587C28.627 18.0102 32.3142 14.323 36.8626 14.323C41.411 14.323 45.0983 18.0102 45.0983 22.5587C45.0983 23.1519 44.6173 23.6329 44.024 23.6329C43.4308 23.6329 42.9498 23.1519 42.9498 22.5587C42.9498 19.1968 40.2245 16.4714 36.8626 16.4714Z" fill="#FD8B51"/>
<path fill-rule="evenodd" clip-rule="evenodd" d="M22.6337 26.7689C23.0102 26.4953 23.5201 26.4953 23.8966 26.7689L25.8635 28.1979C26.3434 28.5466 26.4498 29.2184 26.1011 29.6984C25.7524 30.1784 25.0806 30.2848 24.6006 29.936L23.2651 28.9657L16.6603 33.7644L19.1832 41.5288H27.3471L29.87 33.7644L27.6368 32.1419C27.1568 31.7932 27.0504 31.1214 27.3991 30.6415C27.7479 30.1615 28.4196 30.0551 28.8996 30.4038L31.7642 32.485C32.1407 32.7586 32.2982 33.2434 32.1544 33.686L29.1492 42.935C29.0054 43.3776 28.593 43.6773 28.1276 43.6773H18.4027C17.9373 43.6773 17.5249 43.3776 17.3811 42.935L14.3759 33.686C14.2321 33.2434 14.3896 32.7586 14.7661 32.485L22.6337 26.7689Z" fill="#FD8B51"/>
</svg>
